# Blender 4.5.3 LTS
# www.blender.org
mtllib ico_small.mtl
o Icosphere
v -0.235241 -0.700735 -0.724007
v 0.003618 0.523793 0.892291
v -0.584116 0.361004 -0.796989
v 0.521546 0.523791 -0.724008
v 1.028422 0.315017 0.129445
v -0.178166 1.060728 -0.129444
v 0.178166 -1.060728 0.129444
v -0.003618 -0.523793 0.892291
v 0.847501 -0.523790 0.279175
v -0.850254 -0.671351 -0.000000
v 0.527408 -0.523791 -0.719748
v 0.322581 0.053590 0.992798
v -0.889814 0.356723 0.520931
v -1.043889 -0.053590 -0.000000
v 0.322581 0.053590 -0.992798
v 0.338902 0.957651 0.246226
vn -0.3185 -0.9188 -0.2333
vn -0.7364 -0.2842 -0.6140
vn 0.7814 -0.0576 0.6214
vn -0.3543 0.0375 0.9344
vn -0.2571 -0.1501 -0.9547
vn 0.8411 0.0434 -0.5391
vn 0.5792 0.5052 0.6398
vn -0.3510 0.8017 0.4838
vn -0.7690 0.6144 -0.1764
vn -0.0574 0.7064 -0.7055
vn 0.6483 0.7330 -0.2057
vn 0.3980 0.8631 -0.3110
vn -0.1796 0.8573 0.4825
vn 0.8513 -0.0625 -0.5209
vn -0.0167 0.5015 -0.8650
vn -0.8170 0.5452 -0.1877
vn -0.3743 -0.0560 0.9256
vn 0.5746 0.5242 0.6285
vn 0.0972 -0.3971 -0.9126
vn -0.7795 -0.2443 -0.5768
vn -0.8474 -0.2656 0.4598
vn -0.6444 -0.3652 0.6718
vn 0.5287 -0.4264 0.7339
vn 0.9217 -0.2515 -0.2953
vn 0.2029 -0.8632 -0.4624
vn -0.3631 -0.8005 0.4769
vn 0.6399 -0.7406 -0.2051
vn 0.4227 -0.6906 0.5868
vt 0.727273 0.000000
vt 0.805311 0.137153
vt 0.659399 0.117562
vt 0.681408 0.288606
vt 0.318798 0.157461
vt 0.341334 0.274305
vt 0.181819 0.236191
vt 0.136980 0.157461
vt 0.014940 0.289045
vt 0.545455 0.236191
vt 0.500617 0.157461
vt 0.135748 0.314921
vt 0.272728 0.393651
vt 0.067460 0.431766
vt 0.893102 0.289045
vt 0.818182 0.393651
vt 0.499384 0.314921
vt 0.648662 0.412450
vt 0.409092 0.393651
vt 0.477581 0.432483
vt 0.136365 0.393651
vt 0.818182 0.236191
vt 0.863935 0.116845
vt 1.000000 0.157461
vt 0.522006 0.040616
vt 0.613329 0.117562
vt 0.932126 0.039899
vt 0.363637 0.078731
vt 0.194117 0.059932
s 0
f 7/1/1 10/2/1 1/3/1
f 1/3/2 10/2/2 3/4/2
f 9/5/3 5/6/3 12/7/3
f 8/8/4 12/7/4 13/9/4
f 1/3/5 3/4/5 15/10/5
f 11/11/6 15/10/6 5/6/6
f 2/12/7 5/6/7 16/13/7
f 13/9/8 2/12/8 6/14/8
f 3/4/9 13/15/9 6/16/9
f 4/17/10 3/4/10 6/18/10
f 5/6/11 4/17/11 16/19/11
f 16/19/12 4/17/12 6/20/12
f 6/14/13 2/12/13 16/21/13
f 5/6/14 15/10/14 4/17/14
f 15/10/15 3/4/15 4/17/15
f 14/22/16 13/15/16 3/4/16
f 13/9/17 12/7/17 2/12/17
f 12/7/18 5/6/18 2/12/18
f 11/11/19 1/3/19 15/10/19
f 3/4/20 10/2/20 14/22/20
f 14/22/21 10/23/21 13/15/21
f 10/23/22 8/24/22 13/15/22
f 8/8/23 9/5/23 12/7/23
f 9/5/24 11/11/24 5/6/24
f 7/25/25 1/26/25 11/11/25
f 7/27/26 8/24/26 10/23/26
f 9/5/27 7/28/27 11/11/27
f 7/29/28 9/5/28 8/8/28
